<svg width="318" height="44" viewBox="0 0 318 44" fill="none" xmlns="http://www.w3.org/2000/svg">
<g clip-path="url(#clip0_322_19)">
<g clip-path="url(#clip1_322_19)">
<path d="M68 22C68 33.0456 58.9793 42 47.8518 42H47.5912H47.4306L47.2751 41.9962C47.1605 41.9962 47.0453 41.9887 46.9313 41.9837C46.8866 41.9837 46.8425 41.98 46.7978 41.9769L46.5579 41.9637L46.3835 41.9519L46.3237 41.9475C46.2715 41.9437 46.2192 41.94 46.1669 41.935C46.1147 41.93 46.0738 41.9275 46.0272 41.9231C45.9699 41.9181 45.9126 41.9131 45.8546 41.9069L45.7583 41.8975C45.6223 41.8837 45.4869 41.8687 45.3516 41.8512C45.3006 41.8456 45.2489 41.8387 45.1973 41.8319C45.0714 41.8165 44.9478 41.7992 44.8265 41.78L44.6407 41.75C44.5778 41.7406 44.5148 41.7306 44.4569 41.72L44.2736 41.6881C44.1931 41.6744 44.1125 41.6594 44.0331 41.6437C43.9702 41.6331 43.9135 41.6212 43.8537 41.6094L43.7278 41.5831C43.6056 41.5581 43.4847 41.5319 43.3638 41.5044L43.1856 41.4631L43.0062 41.42C42.8866 41.3912 42.7676 41.3608 42.6492 41.3287L42.4723 41.2812L42.2953 41.2319C42.1776 41.1981 42.0599 41.1637 41.9434 41.1281L41.7923 41.0819L41.7192 41.0587L41.5757 41.0125C41.4535 40.9725 41.3314 40.9319 41.2105 40.8875L41.0367 40.825L41.0191 40.8187L40.8491 40.7562C40.6684 40.6937 40.4902 40.6219 40.3126 40.55L40.1357 40.4781L39.9594 40.4044C39.8419 40.3556 39.7252 40.305 39.6094 40.2525L39.4589 40.1875L39.4104 40.1656L39.292 40.1106C38.7883 39.8765 38.2957 39.6215 37.8143 39.3456L37.6638 39.2587C37.5826 39.2119 37.5014 39.1637 37.4214 39.115L37.2955 39.0369L37.2476 39.0081L37.1286 38.9337C36.9565 38.8271 36.7869 38.7175 36.6199 38.605L36.4669 38.5C36.3922 38.4496 36.3179 38.3983 36.244 38.3462C36.2397 38.3437 36.2357 38.3408 36.232 38.3375C36.1556 38.2842 36.0801 38.2304 36.0053 38.1762L35.9921 38.1669C35.9111 38.1081 35.8305 38.0487 35.7503 37.9887C35.7407 37.9824 35.7315 37.9755 35.7226 37.9681C35.6528 37.9162 35.5835 37.8637 35.5149 37.81C35.4985 37.7987 35.4834 37.7869 35.4683 37.7744C35.4009 37.7225 35.3335 37.67 35.2668 37.6162C35.2416 37.5969 35.2164 37.5762 35.1912 37.5537C35.1232 37.5 35.0552 37.4444 34.9879 37.3881C34.9728 37.3769 34.9583 37.365 34.9444 37.3525C34.8966 37.3133 34.8487 37.2733 34.8009 37.2325C34.7581 37.1969 34.7152 37.16 34.6749 37.1237C34.6032 37.0633 34.5324 37.0008 34.4628 36.9362C34.3878 36.8706 34.3142 36.8037 34.2405 36.7369C34.1668 36.67 34.0976 36.6062 34.0271 36.5394C33.6778 36.2131 33.3405 35.874 33.0152 35.5219C32.9781 35.4825 32.9416 35.4425 32.9057 35.4025C32.8553 35.3481 32.8056 35.2931 32.7571 35.2375C32.7086 35.1819 32.6645 35.1337 32.6192 35.0812C32.5739 35.0287 32.5141 34.96 32.4618 34.8987C32.3082 34.7192 32.1583 34.5369 32.0122 34.3519L31.8914 34.1975C31.7768 34.0512 31.6647 33.9029 31.5551 33.7525C31.4922 33.6662 31.4292 33.58 31.3662 33.4925C31.3617 33.4867 31.3575 33.4807 31.3536 33.4744C31.2928 33.3881 31.2323 33.3012 31.1723 33.2137C31.1173 33.1346 31.0636 33.0548 31.0111 32.9744C30.9897 32.9431 30.9683 32.9119 30.9482 32.8781C30.91 32.8206 30.8722 32.7625 30.8348 32.7037C30.8204 32.6819 30.8059 32.66 30.7926 32.6375C30.7385 32.5542 30.6852 32.4687 30.6327 32.3812C30.5748 32.2875 30.5181 32.1937 30.4621 32.0975C30.4061 32.0012 30.3506 31.91 30.2959 31.8112C30.2644 31.7556 30.2329 31.7006 30.2021 31.6444L30.1347 31.5194C30.0963 31.4506 30.0591 31.3812 30.022 31.3119C30.0132 31.2956 30.0044 31.2787 29.9962 31.2619C29.9647 31.1994 29.9332 31.1425 29.9024 31.0825C29.8646 31.0087 29.8274 30.935 29.7903 30.8612C29.7531 30.7875 29.7172 30.7131 29.6814 30.6394C29.6092 30.4906 29.5388 30.3408 29.4704 30.19C29.402 30.0392 29.3355 29.8873 29.2708 29.7344C29.2387 29.6581 29.2079 29.5812 29.1751 29.5044C29.1424 29.4275 29.1122 29.3512 29.0826 29.2744C29.0524 29.1975 29.0196 29.1206 28.9932 29.0431C28.9667 28.9656 28.9346 28.8875 28.9056 28.8094C28.8217 28.5752 28.7405 28.3385 28.662 28.0994C28.6362 28.02 28.611 27.94 28.5864 27.86C28.5505 27.7444 28.5159 27.6275 28.4819 27.5106C28.4655 27.4525 28.4485 27.3937 28.4322 27.335C28.4158 27.2762 28.4001 27.2181 28.3843 27.1594C28.352 27.0419 28.3214 26.9237 28.2924 26.805C28.2773 26.7458 28.2628 26.6865 28.2489 26.6269L28.2074 26.45C28.1797 26.33 28.1532 26.21 28.1281 26.0888L28.1016 25.9638C28.0896 25.9044 28.0777 25.845 28.067 25.7856C28.0512 25.7069 28.0361 25.6269 28.0223 25.5469C28.0109 25.4865 28.0002 25.4258 27.9902 25.365C27.9795 25.3025 27.9694 25.24 27.9599 25.1825C27.9505 25.125 27.9404 25.0575 27.931 24.9988C27.9121 24.8738 27.8951 24.7537 27.8787 24.6306C27.8718 24.5794 27.8649 24.5281 27.8592 24.4775C27.8416 24.3431 27.8265 24.2087 27.8126 24.0738C27.8088 24.0421 27.8057 24.0102 27.8032 23.9781C27.7969 23.9206 27.7918 23.8638 27.7868 23.8069C27.7824 23.7606 27.778 23.7144 27.7748 23.6681C27.7717 23.6219 27.766 23.5644 27.7622 23.5125C27.7622 23.4925 27.7591 23.4731 27.7578 23.4531C27.7534 23.3956 27.7496 23.3375 27.7459 23.28C27.7408 23.2004 27.7364 23.121 27.7326 23.0419C27.7295 22.9975 27.7276 22.9538 27.7257 22.9094C27.7207 22.7963 27.7163 22.6819 27.7131 22.5681L27.7094 22.4138C27.7094 22.3606 27.7094 22.3075 27.7094 22.2544C27.7094 22.1681 27.7094 22.0819 27.7094 21.9956C27.7094 21.9094 27.7094 21.8231 27.7094 21.7369C27.7094 21.6619 27.7106 21.5869 27.7131 21.5119C27.7175 21.3194 27.7251 21.1281 27.7358 20.9369C27.7389 20.8669 27.7427 20.7963 27.7478 20.7263C27.7547 20.6156 27.7622 20.5044 27.7711 20.3944C27.7761 20.3319 27.7818 20.2694 27.7874 20.2031C27.7937 20.1288 27.8013 20.0544 27.8088 19.9794L27.8145 19.9206C27.8221 19.8469 27.8302 19.7731 27.8391 19.6994C27.8479 19.6219 27.8573 19.545 27.8668 19.4688C27.8743 19.41 27.8819 19.3519 27.8901 19.2938C27.8982 19.2356 27.9045 19.1894 27.9121 19.1375C27.9343 18.9817 27.9585 18.8267 27.9845 18.6725C27.9965 18.6019 28.0084 18.5319 28.021 18.4619C28.0207 18.4579 28.0207 18.454 28.021 18.45C28.0475 18.3006 28.0758 18.1525 28.1066 18.0044C28.1136 17.9694 28.1205 17.935 28.1281 17.9006C28.1482 17.8025 28.1696 17.7044 28.191 17.6069C28.2393 17.3915 28.2915 17.1775 28.3478 16.965C28.3705 16.8769 28.3938 16.7888 28.4183 16.7006C28.4454 16.6019 28.4737 16.5025 28.5027 16.4044C28.5285 16.3156 28.5549 16.2269 28.5826 16.1388C28.5871 16.1219 28.5921 16.1056 28.5978 16.0894C28.6261 15.9981 28.6551 15.9075 28.6846 15.8169C28.7161 15.72 28.7476 15.6244 28.7816 15.5281C28.8156 15.4319 28.8477 15.3406 28.8824 15.2425L28.8861 15.2319C28.9075 15.1694 28.9296 15.1119 28.9529 15.0525C28.9762 14.9931 28.9906 14.95 29.0102 14.8988C29.0731 14.7381 29.1361 14.5781 29.1991 14.42C29.2205 14.3675 29.2419 14.315 29.262 14.2631C29.2715 14.2388 29.2822 14.215 29.2929 14.1913C29.3187 14.1288 29.3458 14.0663 29.3735 14.0038C29.3785 13.9913 29.3835 13.9794 29.3892 13.9675C29.4188 13.9 29.4522 13.8331 29.4792 13.7663C29.5466 13.6188 29.6152 13.4719 29.6864 13.3288C29.7103 13.2794 29.7342 13.23 29.7588 13.1813C29.7834 13.1325 29.7997 13.0981 29.8218 13.0563C29.8438 13.0144 29.8564 12.9863 29.8746 12.9519C29.8929 12.9175 29.9124 12.8775 29.9326 12.84C29.9603 12.7863 29.9886 12.7325 30.0169 12.6794C30.0541 12.6088 30.0919 12.5388 30.1296 12.4694C30.2316 12.2831 30.3366 12.099 30.4445 11.9169C30.4728 11.8688 30.5011 11.8213 30.5301 11.7738C30.5641 11.7163 30.5987 11.6594 30.634 11.6025C30.7127 11.4731 30.7939 11.3444 30.8764 11.2175C30.9192 11.1506 30.9633 11.0838 31.0074 11.0175C31.042 10.9644 31.0772 10.9119 31.1125 10.86C31.3085 10.5683 31.5121 10.284 31.7232 10.0069C31.756 9.96313 31.7894 9.92 31.8227 9.87688C31.8435 9.84875 31.8643 9.82125 31.8857 9.79438L32.0066 9.64C32.1526 9.455 32.3025 9.27271 32.4561 9.09313C32.5084 9.03063 32.5606 8.96813 32.6135 8.91063C32.6664 8.85313 32.7048 8.80626 32.7514 8.75438C32.798 8.70251 32.8496 8.64375 32.9 8.58938C32.9359 8.54938 32.9724 8.50938 33.0096 8.47001C33.3261 8.12667 33.6549 7.79521 33.9962 7.47563C35.5413 8.92832 36.8461 10.6136 37.8628 12.4694C35.3799 15.0295 33.995 18.4463 34 22C34 22.1619 34 22.3231 34.0088 22.4831C34.0822 24.6648 34.6807 26.7973 35.7541 28.7025C35.8603 28.8912 35.9709 29.0771 36.0859 29.26L55.1637 10.3225C53.11 9.05178 50.7553 8.34042 48.3366 8.26001C48.1755 8.25376 48.013 8.25126 47.8499 8.25126C46.2508 8.24937 44.6634 8.52302 43.1586 9.06001C42.0868 7.18609 40.7871 5.44997 39.2889 3.89063C39.6813 3.70688 40.0801 3.53605 40.4852 3.37813L40.6526 3.31563C40.7924 3.26188 40.9335 3.21063 41.0751 3.16063C41.1337 3.13938 41.1929 3.11938 41.2521 3.09813C41.3112 3.07688 41.3698 3.05751 41.4296 3.03563C41.4894 3.01376 41.5555 2.99313 41.6216 2.97313C41.6997 2.94751 41.7784 2.92313 41.8578 2.89876L42.0567 2.83626C42.2091 2.79126 42.3623 2.74772 42.5163 2.70563C42.5598 2.69376 42.6026 2.68188 42.6461 2.67126C42.7015 2.65626 42.7575 2.64126 42.8135 2.62751C42.8696 2.61376 42.9395 2.59501 43.0024 2.57938C43.0818 2.56001 43.1611 2.54063 43.2411 2.52251L43.3594 2.50001L43.5017 2.46876C43.6793 2.43001 43.8581 2.39313 44.0382 2.35938C44.1194 2.34376 44.2006 2.32876 44.2825 2.31438H44.2913C44.3719 2.29938 44.4531 2.28563 44.5343 2.27251C44.6716 2.25001 44.8097 2.22917 44.9486 2.21001L45.0915 2.18751C45.3081 2.15813 45.5254 2.13188 45.7445 2.10938L45.8452 2.09938C45.9044 2.09313 45.9629 2.08813 46.0215 2.08313C46.1084 2.07501 46.1953 2.06751 46.2822 2.06126L46.3791 2.05438C46.4358 2.05001 46.4931 2.04563 46.5504 2.04251H46.5699L46.7771 2.03063C46.8721 2.02563 46.9659 2.02126 47.0635 2.01751L47.26 2.01126C47.3097 2.01126 47.3601 2.00813 47.4098 2.00751H47.5509C47.651 2.00751 47.7511 2.00751 47.8518 2.00751H48.1125H48.2731L48.4286 2.01126C48.5432 2.01126 48.6578 2.01876 48.7723 2.02376C48.8171 2.02376 48.8611 2.02751 48.9058 2.03063C48.9856 2.03438 49.0655 2.03876 49.1457 2.04376L49.3201 2.05563L49.3799 2.06001C49.4322 2.06376 49.4845 2.06751 49.5367 2.07251C49.589 2.07751 49.6299 2.08001 49.6765 2.08438C49.7338 2.08938 49.7911 2.09438 49.849 2.10063C49.8809 2.10313 49.913 2.10626 49.9453 2.11001C50.0813 2.12376 50.2167 2.13876 50.3521 2.15626C50.4031 2.16188 50.4547 2.16876 50.5063 2.17563C50.6323 2.19188 50.7538 2.20876 50.8772 2.22751L51.0623 2.25626C51.1253 2.26563 51.1882 2.27563 51.2462 2.28626L51.4294 2.31813C51.51 2.33188 51.5906 2.34688 51.6699 2.36251C51.7329 2.37313 51.7895 2.38501 51.8493 2.39688L51.9753 2.42313C52.0974 2.44813 52.2183 2.47438 52.3392 2.50188L52.5174 2.54313C52.5774 2.55688 52.6372 2.57126 52.6968 2.58626C52.8165 2.61501 52.9355 2.64542 53.0538 2.67751L53.2308 2.72501L53.4077 2.77438C53.5254 2.80813 53.6432 2.84251 53.7596 2.87813L53.9611 2.94063L54.162 3.00313L54.3616 3.06938C54.4944 3.11438 54.6266 3.16126 54.7582 3.20876L54.9547 3.28126C55.0088 3.30126 55.063 3.32209 55.1171 3.34376C55.2015 3.37501 55.2846 3.40626 55.369 3.44126L55.5409 3.51126L55.7335 3.59126C55.7965 3.61813 55.8595 3.64563 55.9224 3.67376C55.9854 3.70188 56.0483 3.72876 56.1113 3.75751L56.3002 3.84376C56.3632 3.87251 56.4261 3.90188 56.4891 3.93188C56.5709 3.97001 56.6522 4.00876 56.7328 4.04876L56.8631 4.11126C56.9261 4.14188 56.989 4.17376 57.052 4.20501C57.1779 4.26751 57.2975 4.33001 57.4197 4.39751L57.5796 4.48438C57.6898 4.54688 57.7987 4.60501 57.9064 4.66751L58.0323 4.73938C58.1885 4.83001 58.3433 4.92251 58.4963 5.01813L58.6097 5.08876C58.6449 5.11063 58.6802 5.13251 58.7148 5.15501C58.7778 5.19688 58.8458 5.23876 58.9106 5.28001C58.9566 5.30938 59.0019 5.33876 59.0466 5.36938C59.0913 5.40001 59.1323 5.42626 59.1726 5.45563C59.5239 5.6923 59.8668 5.94021 60.2014 6.19938C60.2423 6.23001 60.2832 6.26188 60.3235 6.29376C60.5036 6.43459 60.681 6.57855 60.8556 6.72563L61.0319 6.87501C61.0948 6.92876 61.1578 6.98251 61.2208 7.03751C61.2598 7.07126 61.2982 7.10563 61.3366 7.14063C61.4203 7.21438 61.5028 7.29001 61.5847 7.36626C61.6344 7.41188 61.6842 7.45813 61.7333 7.50501C61.9813 7.73834 62.2229 7.97813 62.458 8.22438C62.5052 8.27313 62.5518 8.3225 62.5978 8.37188C62.6746 8.45313 62.7508 8.53501 62.8251 8.61813C62.8603 8.65626 62.8949 8.69438 62.9289 8.73313C62.9843 8.79563 63.0385 8.85813 63.0926 8.92063C63.1468 8.98313 63.1909 9.03375 63.2393 9.09063C63.3871 9.26355 63.5321 9.43959 63.6744 9.61875C63.7065 9.65875 63.7374 9.69938 63.7695 9.74C63.9005 9.90667 64.0281 10.0748 64.1523 10.2444L45.7816 28.4744L40.5381 33.6794C42.5917 34.9502 44.9464 35.6616 47.3651 35.7419C47.5263 35.7481 47.6888 35.7506 47.8518 35.7506C55.5018 35.7506 61.7037 29.5944 61.7037 22.0006C61.7037 21.8388 61.7037 21.6775 61.6949 21.5175L64.5282 18.705L67.1185 16.1331C67.1544 16.2488 67.189 16.3656 67.223 16.4825C67.2394 16.5406 67.2564 16.5994 67.2728 16.6581C67.2891 16.7169 67.3049 16.775 67.3206 16.8338C67.3525 16.9513 67.3832 17.0694 67.4125 17.1881C67.4276 17.2477 67.4421 17.3071 67.456 17.3663L67.4975 17.5431C67.5252 17.6631 67.5517 17.7831 67.5769 17.9044L67.6033 18.0294C67.6153 18.0888 67.6272 18.1481 67.6379 18.2075C67.6537 18.2863 67.6688 18.3663 67.6826 18.4463C67.694 18.5067 67.7047 18.5673 67.7148 18.6281C67.7255 18.6906 67.7355 18.7531 67.745 18.8106C67.7544 18.8681 67.7645 18.9356 67.7739 18.9944C67.7928 19.1169 67.8102 19.2396 67.8262 19.3625C67.8331 19.4138 67.8401 19.465 67.8457 19.5156C67.8634 19.65 67.8785 19.7844 67.8923 19.9194C67.8961 19.951 67.8992 19.9829 67.9018 20.015C67.9081 20.0725 67.9131 20.1294 67.9181 20.1863C67.9225 20.2325 67.9269 20.2788 67.9301 20.325C67.9332 20.3713 67.9389 20.4288 67.9427 20.4806C67.9427 20.5006 67.9458 20.52 67.9471 20.54C67.9515 20.5975 67.9553 20.6556 67.959 20.7131C67.9641 20.7927 67.9685 20.8721 67.9723 20.9513C67.9723 20.9956 67.9773 21.0394 67.9792 21.0838C67.9842 21.1975 67.9886 21.3113 67.9918 21.425L67.9956 21.5794C67.9956 21.6325 67.9956 21.6856 67.9956 21.7388C67.9985 21.8267 68 21.9138 68 22Z" fill="#71A894"/>
<path d="M34 7.47682C33.6592 7.79682 33.3303 8.12828 33.0134 8.47119C32.9762 8.51057 32.9397 8.55057 32.9038 8.59057C32.8534 8.64494 32.8037 8.69994 32.7552 8.75557C32.7067 8.81119 32.6627 8.85932 32.6173 8.91182C32.572 8.96432 32.5122 9.03307 32.4599 9.09432C32.3063 9.27349 32.1564 9.45578 32.0104 9.64119L31.8895 9.79557C31.8674 9.82244 31.8467 9.84995 31.8265 9.87807C31.7931 9.9212 31.7598 9.96432 31.727 10.0081C31.5172 10.2868 31.3136 10.5712 31.1163 10.8612C31.081 10.9131 31.0458 10.9656 31.0111 11.0187C30.9671 11.0849 30.923 11.1518 30.8802 11.2187C30.7977 11.3437 30.7165 11.4743 30.6378 11.6037C30.6025 11.6606 30.5679 11.7174 30.5339 11.7749C30.5049 11.8224 30.4766 11.8699 30.4483 11.9181C30.3408 12.1002 30.2359 12.2843 30.1334 12.4706C28.8426 11.134 27.2923 10.071 25.5761 9.34555C23.8599 8.62015 22.0134 8.24745 20.1481 8.24994C12.4981 8.24994 6.2963 14.4062 6.2963 21.9999C6.2963 29.5937 12.4981 35.75 20.1481 35.75C21.7473 35.7518 23.3346 35.4782 24.8395 34.9412C25.9118 36.8149 27.2121 38.5506 28.7111 40.1093C26.0322 41.3586 23.108 42.0042 20.1481 42C9.0207 42 0 33.0456 0 21.9999C0 10.9543 9.0207 1.99994 20.1481 1.99994C25.3017 1.99684 30.2599 3.95727 34 7.47682Z" fill="#303031"/>
</g>
<path d="M99.6094 22.5469C99.6094 24.3073 99.3906 25.9115 98.9531 27.3594C98.5156 28.7969 97.849 30.0365 96.9531 31.0781C96.0677 32.1198 94.9427 32.9219 93.5781 33.4844C92.2135 34.0365 90.599 34.3125 88.7344 34.3125C86.8698 34.3125 85.2552 34.0365 83.8906 33.4844C82.526 32.9219 81.3958 32.1198 80.5 31.0781C79.6146 30.0365 78.9531 28.7917 78.5156 27.3438C78.0781 25.8958 77.8594 24.2865 77.8594 22.5156C77.8594 20.151 78.2448 18.0938 79.0156 16.3438C79.7969 14.5833 80.9948 13.2188 82.6094 12.25C84.224 11.2812 86.276 10.7969 88.7656 10.7969C91.2448 10.7969 93.2812 11.2812 94.875 12.25C96.4792 13.2188 97.6667 14.5833 98.4375 16.3438C99.2188 18.1042 99.6094 20.1719 99.6094 22.5469ZM82.9375 22.5469C82.9375 24.1406 83.1354 25.5156 83.5312 26.6719C83.9375 27.8177 84.5677 28.7031 85.4219 29.3281C86.276 29.9427 87.3802 30.25 88.7344 30.25C90.1094 30.25 91.224 29.9427 92.0781 29.3281C92.9323 28.7031 93.5521 27.8177 93.9375 26.6719C94.3333 25.5156 94.5312 24.1406 94.5312 22.5469C94.5312 20.151 94.0833 18.2656 93.1875 16.8906C92.2917 15.5156 90.8177 14.8281 88.7656 14.8281C87.401 14.8281 86.2865 15.1406 85.4219 15.7656C84.5677 16.3802 83.9375 17.2656 83.5312 18.4219C83.1354 19.5677 82.9375 20.9427 82.9375 22.5469ZM112.407 16.2031C114.376 16.2031 115.965 16.9688 117.173 18.5C118.392 20.0312 119.001 22.276 119.001 25.2344C119.001 27.2135 118.715 28.8802 118.142 30.2344C117.569 31.5781 116.777 32.5938 115.767 33.2812C114.756 33.9688 113.595 34.3125 112.282 34.3125C111.439 34.3125 110.715 34.2083 110.111 34C109.506 33.7812 108.991 33.5052 108.564 33.1719C108.137 32.8281 107.767 32.4635 107.454 32.0781H107.204C107.288 32.4948 107.35 32.9219 107.392 33.3594C107.434 33.7969 107.454 34.224 107.454 34.6406V41.6875H102.689V16.5312H106.564L107.236 18.7969H107.454C107.767 18.3281 108.147 17.8958 108.595 17.5C109.043 17.1042 109.579 16.7917 110.204 16.5625C110.84 16.3229 111.574 16.2031 112.407 16.2031ZM110.876 20.0156C110.043 20.0156 109.381 20.1875 108.892 20.5312C108.402 20.875 108.043 21.3906 107.814 22.0781C107.595 22.7656 107.475 23.6354 107.454 24.6875V25.2031C107.454 26.3281 107.559 27.2812 107.767 28.0625C107.986 28.8438 108.345 29.4375 108.845 29.8438C109.355 30.25 110.053 30.4531 110.939 30.4531C111.668 30.4531 112.267 30.25 112.736 29.8438C113.204 29.4375 113.553 28.8438 113.782 28.0625C114.022 27.2708 114.142 26.3073 114.142 25.1719C114.142 23.4635 113.876 22.1771 113.345 21.3125C112.814 20.4479 111.991 20.0156 110.876 20.0156ZM128.862 16.2031C130.476 16.2031 131.867 16.5156 133.034 17.1406C134.2 17.7552 135.101 18.651 135.737 19.8281C136.372 21.0052 136.69 22.4427 136.69 24.1406V26.4531H125.424C125.476 27.7969 125.877 28.8542 126.627 29.625C127.388 30.3854 128.44 30.7656 129.784 30.7656C130.898 30.7656 131.919 30.651 132.846 30.4219C133.773 30.1927 134.726 29.849 135.706 29.3906V33.0781C134.841 33.5052 133.935 33.8177 132.987 34.0156C132.049 34.2135 130.909 34.3125 129.565 34.3125C127.815 34.3125 126.263 33.9896 124.909 33.3438C123.565 32.6979 122.508 31.7135 121.737 30.3906C120.976 29.0677 120.596 27.401 120.596 25.3906C120.596 23.349 120.94 21.651 121.627 20.2969C122.325 18.9323 123.294 17.9115 124.534 17.2344C125.773 16.5469 127.216 16.2031 128.862 16.2031ZM128.893 19.5938C127.966 19.5938 127.195 19.8906 126.581 20.4844C125.976 21.0781 125.627 22.0104 125.534 23.2812H132.221C132.211 22.5729 132.081 21.9427 131.831 21.3906C131.591 20.8385 131.226 20.401 130.737 20.0781C130.258 19.7552 129.643 19.5938 128.893 19.5938ZM149.207 16.2031C151.071 16.2031 152.571 16.7135 153.707 17.7344C154.842 18.7448 155.41 20.3698 155.41 22.6094V34H150.644V23.7969C150.644 22.5469 150.415 21.6042 149.957 20.9688C149.509 20.3333 148.801 20.0156 147.832 20.0156C146.374 20.0156 145.379 20.5104 144.847 21.5C144.316 22.4896 144.051 23.9167 144.051 25.7812V34H139.285V16.5312H142.926L143.566 18.7656H143.832C144.207 18.1615 144.67 17.6719 145.222 17.2969C145.785 16.9219 146.405 16.6458 147.082 16.4688C147.769 16.2917 148.478 16.2031 149.207 16.2031ZM179.6 34H166.444V11.1562H179.6V15.125H171.287V20.1406H179.022V24.1094H171.287V30H179.6V34ZM192.648 16.2031C194.513 16.2031 196.013 16.7135 197.148 17.7344C198.284 18.7448 198.851 20.3698 198.851 22.6094V34H194.086V23.7969C194.086 22.5469 193.856 21.6042 193.398 20.9688C192.95 20.3333 192.242 20.0156 191.273 20.0156C189.815 20.0156 188.82 20.5104 188.289 21.5C187.757 22.4896 187.492 23.9167 187.492 25.7812V34H182.726V16.5312H186.367L187.007 18.7656H187.273C187.648 18.1615 188.112 17.6719 188.664 17.2969C189.226 16.9219 189.846 16.6458 190.523 16.4688C191.211 16.2917 191.919 16.2031 192.648 16.2031ZM209.837 30.5156C210.358 30.5156 210.863 30.4635 211.353 30.3594C211.853 30.2552 212.347 30.125 212.837 29.9688V33.5156C212.326 33.7448 211.691 33.9323 210.931 34.0781C210.181 34.2344 209.358 34.3125 208.462 34.3125C207.42 34.3125 206.483 34.1458 205.649 33.8125C204.826 33.4688 204.175 32.8802 203.696 32.0469C203.228 31.2031 202.993 30.0312 202.993 28.5312V20.1094H200.712V18.0938L203.337 16.5L204.712 12.8125H207.759V16.5312H212.649V20.1094H207.759V28.5312C207.759 29.1979 207.946 29.6979 208.321 30.0312C208.707 30.3542 209.212 30.5156 209.837 30.5156ZM222.307 16.2031C223.921 16.2031 225.312 16.5156 226.479 17.1406C227.645 17.7552 228.546 18.651 229.182 19.8281C229.817 21.0052 230.135 22.4427 230.135 24.1406V26.4531H218.869C218.921 27.7969 219.322 28.8542 220.072 29.625C220.833 30.3854 221.885 30.7656 223.229 30.7656C224.343 30.7656 225.364 30.651 226.291 30.4219C227.218 30.1927 228.171 29.849 229.151 29.3906V33.0781C228.286 33.5052 227.38 33.8177 226.432 34.0156C225.494 34.2135 224.354 34.3125 223.01 34.3125C221.26 34.3125 219.708 33.9896 218.354 33.3438C217.01 32.6979 215.953 31.7135 215.182 30.3906C214.421 29.0677 214.041 27.401 214.041 25.3906C214.041 23.349 214.385 21.651 215.072 20.2969C215.77 18.9323 216.739 17.9115 217.979 17.2344C219.218 16.5469 220.661 16.2031 222.307 16.2031ZM222.338 19.5938C221.411 19.5938 220.64 19.8906 220.026 20.4844C219.421 21.0781 219.072 22.0104 218.979 23.2812H225.666C225.656 22.5729 225.526 21.9427 225.276 21.3906C225.036 20.8385 224.671 20.401 224.182 20.0781C223.703 19.7552 223.088 19.5938 222.338 19.5938ZM242.48 16.2031C242.72 16.2031 242.996 16.2188 243.308 16.25C243.631 16.2708 243.891 16.3021 244.089 16.3438L243.73 20.8125C243.574 20.7604 243.35 20.724 243.058 20.7031C242.777 20.6719 242.532 20.6562 242.324 20.6562C241.709 20.6562 241.11 20.7344 240.527 20.8906C239.954 21.0469 239.438 21.3021 238.98 21.6562C238.522 22 238.157 22.4583 237.886 23.0312C237.626 23.5938 237.496 24.2865 237.496 25.1094V34H232.73V16.5312H236.339L237.042 19.4688H237.277C237.621 18.875 238.048 18.3333 238.558 17.8438C239.079 17.3438 239.667 16.9479 240.324 16.6562C240.99 16.3542 241.709 16.2031 242.48 16.2031ZM255.7 16.2031C257.669 16.2031 259.257 16.9688 260.466 18.5C261.684 20.0312 262.294 22.276 262.294 25.2344C262.294 27.2135 262.007 28.8802 261.434 30.2344C260.861 31.5781 260.07 32.5938 259.059 33.2812C258.049 33.9688 256.887 34.3125 255.575 34.3125C254.731 34.3125 254.007 34.2083 253.403 34C252.799 33.7812 252.283 33.5052 251.856 33.1719C251.429 32.8281 251.059 32.4635 250.747 32.0781H250.497C250.58 32.4948 250.643 32.9219 250.684 33.3594C250.726 33.7969 250.747 34.224 250.747 34.6406V41.6875H245.981V16.5312H249.856L250.528 18.7969H250.747C251.059 18.3281 251.44 17.8958 251.887 17.5C252.335 17.1042 252.872 16.7917 253.497 16.5625C254.132 16.3229 254.867 16.2031 255.7 16.2031ZM254.169 20.0156C253.335 20.0156 252.674 20.1875 252.184 20.5312C251.695 20.875 251.335 21.3906 251.106 22.0781C250.887 22.7656 250.768 23.6354 250.747 24.6875V25.2031C250.747 26.3281 250.851 27.2812 251.059 28.0625C251.278 28.8438 251.637 29.4375 252.137 29.8438C252.648 30.25 253.346 30.4531 254.231 30.4531C254.96 30.4531 255.559 30.25 256.028 29.8438C256.497 29.4375 256.846 28.8438 257.075 28.0625C257.315 27.2708 257.434 26.3073 257.434 25.1719C257.434 23.4635 257.169 22.1771 256.637 21.3125C256.106 20.4479 255.283 20.0156 254.169 20.0156ZM274.701 16.2031C274.941 16.2031 275.217 16.2188 275.529 16.25C275.852 16.2708 276.113 16.3021 276.311 16.3438L275.951 20.8125C275.795 20.7604 275.571 20.724 275.279 20.7031C274.998 20.6719 274.753 20.6562 274.545 20.6562C273.93 20.6562 273.331 20.7344 272.748 20.8906C272.175 21.0469 271.66 21.3021 271.201 21.6562C270.743 22 270.378 22.4583 270.107 23.0312C269.847 23.5938 269.717 24.2865 269.717 25.1094V34H264.951V16.5312H268.561L269.264 19.4688H269.498C269.842 18.875 270.269 18.3333 270.779 17.8438C271.3 17.3438 271.889 16.9479 272.545 16.6562C273.212 16.3542 273.93 16.2031 274.701 16.2031ZM282.968 16.5312V34H278.202V16.5312H282.968ZM280.593 9.6875C281.301 9.6875 281.911 9.85417 282.421 10.1875C282.932 10.5104 283.187 11.1198 283.187 12.0156C283.187 12.901 282.932 13.5156 282.421 13.8594C281.911 14.1927 281.301 14.3594 280.593 14.3594C279.874 14.3594 279.26 14.1927 278.749 13.8594C278.249 13.5156 277.999 12.901 277.999 12.0156C277.999 11.1198 278.249 10.5104 278.749 10.1875C279.26 9.85417 279.874 9.6875 280.593 9.6875ZM298.891 28.8125C298.891 30 298.61 31.0052 298.048 31.8281C297.495 32.6406 296.667 33.2604 295.563 33.6875C294.459 34.1042 293.084 34.3125 291.438 34.3125C290.219 34.3125 289.173 34.2344 288.298 34.0781C287.433 33.9219 286.558 33.6615 285.673 33.2969V29.3594C286.62 29.7865 287.636 30.1406 288.719 30.4219C289.813 30.6927 290.771 30.8281 291.594 30.8281C292.521 30.8281 293.183 30.6927 293.579 30.4219C293.985 30.1406 294.188 29.776 294.188 29.3281C294.188 29.0365 294.105 28.776 293.938 28.5469C293.782 28.3073 293.438 28.0417 292.907 27.75C292.376 27.4479 291.542 27.0573 290.407 26.5781C289.313 26.1198 288.412 25.6562 287.704 25.1875C287.006 24.7188 286.485 24.1667 286.141 23.5312C285.808 22.8854 285.641 22.0677 285.641 21.0781C285.641 19.4635 286.266 18.25 287.516 17.4375C288.777 16.6146 290.459 16.2031 292.563 16.2031C293.646 16.2031 294.678 16.3125 295.657 16.5312C296.646 16.75 297.662 17.099 298.704 17.5781L297.266 21.0156C296.402 20.6406 295.584 20.3333 294.813 20.0938C294.053 19.8542 293.277 19.7344 292.485 19.7344C291.787 19.7344 291.261 19.8281 290.907 20.0156C290.553 20.2031 290.376 20.4896 290.376 20.875C290.376 21.1562 290.464 21.4062 290.641 21.625C290.829 21.8438 291.183 22.0885 291.704 22.3594C292.235 22.6198 293.011 22.9583 294.032 23.375C295.021 23.7812 295.881 24.2083 296.61 24.6562C297.339 25.0938 297.902 25.6406 298.298 26.2969C298.693 26.9427 298.891 27.7812 298.891 28.8125ZM308.533 16.2031C310.148 16.2031 311.538 16.5156 312.705 17.1406C313.872 17.7552 314.773 18.651 315.408 19.8281C316.044 21.0052 316.361 22.4427 316.361 24.1406V26.4531H305.096C305.148 27.7969 305.549 28.8542 306.299 29.625C307.059 30.3854 308.111 30.7656 309.455 30.7656C310.57 30.7656 311.59 30.651 312.518 30.4219C313.445 30.1927 314.398 29.849 315.377 29.3906V33.0781C314.512 33.5052 313.606 33.8177 312.658 34.0156C311.721 34.2135 310.58 34.3125 309.236 34.3125C307.486 34.3125 305.934 33.9896 304.58 33.3438C303.236 32.6979 302.179 31.7135 301.408 30.3906C300.648 29.0677 300.268 27.401 300.268 25.3906C300.268 23.349 300.611 21.651 301.299 20.2969C301.997 18.9323 302.965 17.9115 304.205 17.2344C305.445 16.5469 306.887 16.2031 308.533 16.2031ZM308.564 19.5938C307.637 19.5938 306.866 19.8906 306.252 20.4844C305.648 21.0781 305.299 22.0104 305.205 23.2812H311.893C311.882 22.5729 311.752 21.9427 311.502 21.3906C311.262 20.8385 310.898 20.401 310.408 20.0781C309.929 19.7552 309.314 19.5938 308.564 19.5938Z" fill="#303031"/>
</g>
<defs>
<clipPath id="clip0_322_19">
<rect width="318" height="44" fill="white"/>
</clipPath>
<clipPath id="clip1_322_19">
<rect width="68" height="40" fill="white" transform="translate(0 2)"/>
</clipPath>
</defs>
</svg>
